# MagicaVoxel @ Ephtracy

# group
o 

# material
mtllib tree_orange.mtl
usemtl palette

# normals
vn -1 0 0
vn 1 0 0
vn 0 0 1
vn 0 0 -1
vn 0 -1 0
vn 0 1 0

# texcoords
vt 0.0644531 0.5
vt 0.0683594 0.5
vt 0.537109 0.5

# verts
v -1.1 2.6 1
v -1.1 2.6 0.5
v -1.1 2.7 0.3
v -1.1 2.7 -0.5
v -1.1 3 1
v -1.1 3 0.5
v -1.1 4 0.3
v -1.1 4 -0.5
v -1 2.2 0.7
v -1 2.2 -0.9
v -1 2.4 1.2
v -1 2.4 0.7
v -1 2.6 1
v -1 2.6 0.5
v -1 2.7 0.3
v -1 2.7 -0.5
v -1 3 1
v -1 3 0.5
v -1 4 0.3
v -1 4 -0.5
v -1 4.3 -0.4
v -1 4.3 -0.9
v -1 4.6 1.2
v -1 4.6 -0.4
v -0.9 3.5 -0.9
v -0.9 3.5 -1
v -0.9 4.3 -0.9
v -0.9 4.3 -1
v -0.8 1.6 0.1
v -0.8 1.6 -0.1
v -0.8 2 0.1
v -0.8 2 -0.1
v -0.8 4.6 1.1
v -0.8 4.6 0.1
v -0.8 4.7 1.1
v -0.8 4.7 0.1
v -0.6 3.9 1.4
v -0.6 3.9 1.2
v -0.6 4.6 1.2
v -0.6 4.6 1.1
v -0.6 4.7 1.4
v -0.6 4.7 1.1
v -0.4 0 0.4
v -0.4 0 -0.4
v -0.4 1.6 0.1
v -0.4 1.6 -0.1
v -0.4 1.8 0.1
v -0.4 1.8 -0.1
v -0.4 2.2 0.4
v -0.4 2.2 -0.4
v -0.3 2.8 1.3
v -0.3 2.8 1.2
v -0.3 3.5 1.3
v -0.3 3.5 1.2
v 0 2.8 -0.9
v 0 2.8 -1
v 0 3.7 -0.9
v 0 3.7 -1
v -0.7 1.8 0.1
v -0.7 1.8 -0.1
v -0.7 2 0.1
v -0.7 2 -0.1
v -0.2 3.5 -0.9
v -0.2 3.5 -1
v -0.2 4.3 -0.9
v -0.2 4.3 -1
v 0.3 3.9 1.4
v 0.3 3.9 1.2
v 0.3 4.6 1.2
v 0.3 4.6 1.1
v 0.3 4.7 1.4
v 0.3 4.7 1.1
v 0.4 0 0.4
v 0.4 0 -0.4
v 0.4 2.2 0.4
v 0.4 2.2 -0.4
v 0.4 4.6 1.1
v 0.4 4.6 0.1
v 0.4 4.7 1.1
v 0.4 4.7 0.1
v 0.8 2.8 1.3
v 0.8 2.8 1.2
v 0.8 3.5 1.3
v 0.8 3.5 1.2
v 1 2.2 0.7
v 1 2.2 -0.9
v 1 2.4 1.2
v 1 2.4 0.7
v 1 2.8 -0.2
v 1 2.8 -0.9
v 1 3.4 1.1
v 1 3.4 -0.1
v 1 3.7 -0.2
v 1 3.7 -0.9
v 1 4.3 -0.4
v 1 4.3 -0.9
v 1 4.4 1.1
v 1 4.4 -0.1
v 1 4.6 1.2
v 1 4.6 -0.4
v 1.1 3.4 1.1
v 1.1 3.4 -0.1
v 1.1 4.4 1.1
v 1.1 4.4 -0.1
v 1.2 2.8 -0.2
v 1.2 2.8 -1
v 1.2 3.7 -0.2
v 1.2 3.7 -1
v -0.6 3.9 1.4
v -0.6 4.7 1.4
v 0.3 3.9 1.4
v 0.3 4.7 1.4
v -0.3 2.8 1.3
v -0.3 3.5 1.3
v 0.8 2.8 1.3
v 0.8 3.5 1.3
v -1 2.4 1.2
v -1 4.6 1.2
v -0.6 3.9 1.2
v -0.6 4.6 1.2
v -0.3 2.8 1.2
v -0.3 3.5 1.2
v 0.3 3.9 1.2
v 0.3 4.6 1.2
v 0.8 2.8 1.2
v 0.8 3.5 1.2
v 1 2.4 1.2
v 1 4.6 1.2
v -0.8 4.6 1.1
v -0.8 4.7 1.1
v -0.6 4.6 1.1
v -0.6 4.7 1.1
v 0.3 4.6 1.1
v 0.3 4.7 1.1
v 0.4 4.6 1.1
v 0.4 4.7 1.1
v 1 3.4 1.1
v 1 4.4 1.1
v 1.1 3.4 1.1
v 1.1 4.4 1.1
v -1.1 2.6 1
v -1.1 3 1
v -1 2.6 1
v -1 3 1
v -1 2.2 0.7
v -1 2.4 0.7
v 1 2.2 0.7
v 1 2.4 0.7
v -0.4 0 0.4
v -0.4 2.2 0.4
v 0.4 0 0.4
v 0.4 2.2 0.4
v -1.1 2.7 0.3
v -1.1 4 0.3
v -1 2.7 0.3
v -1 4 0.3
v -0.8 1.6 0.1
v -0.8 2 0.1
v -0.7 1.8 0.1
v -0.7 2 0.1
v -0.4 1.6 0.1
v -0.4 1.8 0.1
v 1 2.8 -0.2
v 1 3.7 -0.2
v 1.2 2.8 -0.2
v 1.2 3.7 -0.2
v -1.1 2.6 0.5
v -1.1 3 0.5
v -1 2.6 0.5
v -1 3 0.5
v -0.8 4.6 0.1
v -0.8 4.7 0.1
v 0.4 4.6 0.1
v 0.4 4.7 0.1
v -0.8 1.6 -0.1
v -0.8 2 -0.1
v -0.7 1.8 -0.1
v -0.7 2 -0.1
v -0.4 1.6 -0.1
v -0.4 1.8 -0.1
v 1 3.4 -0.1
v 1 4.4 -0.1
v 1.1 3.4 -0.1
v 1.1 4.4 -0.1
v -1 4.3 -0.4
v -1 4.6 -0.4
v -0.4 0 -0.4
v -0.4 2.2 -0.4
v 0.4 0 -0.4
v 0.4 2.2 -0.4
v 1 4.3 -0.4
v 1 4.6 -0.4
v -1.1 2.7 -0.5
v -1.1 4 -0.5
v -1 2.7 -0.5
v -1 4 -0.5
v -1 2.2 -0.9
v -1 4.3 -0.9
v -0.9 3.5 -0.9
v -0.9 4.3 -0.9
v -0.2 3.5 -0.9
v -0.2 4.3 -0.9
v 0 2.8 -0.9
v 0 3.7 -0.9
v 1 2.2 -0.9
v 1 2.8 -0.9
v 1 3.7 -0.9
v 1 4.3 -0.9
v -0.9 3.5 -1
v -0.9 4.3 -1
v -0.2 3.5 -1
v -0.2 4.3 -1
v 0 2.8 -1
v 0 3.7 -1
v 1.2 2.8 -1
v 1.2 3.7 -1
v -0.4 0 0.4
v 0.4 0 0.4
v -0.4 0 -0.4
v 0.4 0 -0.4
v -0.8 1.6 0.1
v -0.4 1.6 0.1
v -0.8 1.6 -0.1
v -0.4 1.6 -0.1
v -1 2.2 0.7
v 1 2.2 0.7
v -0.4 2.2 0.4
v 0.4 2.2 0.4
v -0.4 2.2 -0.4
v 0.4 2.2 -0.4
v -1 2.2 -0.9
v 1 2.2 -0.9
v -1 2.4 1.2
v 1 2.4 1.2
v -1 2.4 0.7
v 1 2.4 0.7
v -1.1 2.6 1
v -1 2.6 1
v -1.1 2.6 0.5
v -1 2.6 0.5
v -1.1 2.7 0.3
v -1 2.7 0.3
v -1.1 2.7 -0.5
v -1 2.7 -0.5
v -0.3 2.8 1.3
v 0.8 2.8 1.3
v -0.3 2.8 1.2
v 0.8 2.8 1.2
v 1 2.8 -0.2
v 1.2 2.8 -0.2
v 0 2.8 -0.9
v 1 2.8 -0.9
v 0 2.8 -1
v 1.2 2.8 -1
v 1 3.4 1.1
v 1.1 3.4 1.1
v 1 3.4 -0.1
v 1.1 3.4 -0.1
v -0.9 3.5 -0.9
v -0.2 3.5 -0.9
v -0.9 3.5 -1
v -0.2 3.5 -1
v -0.6 3.9 1.4
v 0.3 3.9 1.4
v -0.6 3.9 1.2
v 0.3 3.9 1.2
v -0.7 1.8 0.1
v -0.4 1.8 0.1
v -0.7 1.8 -0.1
v -0.4 1.8 -0.1
v -0.8 2 0.1
v -0.7 2 0.1
v -0.8 2 -0.1
v -0.7 2 -0.1
v -1.1 3 1
v -1 3 1
v -1.1 3 0.5
v -1 3 0.5
v -0.3 3.5 1.3
v 0.8 3.5 1.3
v -0.3 3.5 1.2
v 0.8 3.5 1.2
v 1 3.7 -0.2
v 1.2 3.7 -0.2
v 0 3.7 -0.9
v 1 3.7 -0.9
v 0 3.7 -1
v 1.2 3.7 -1
v -1.1 4 0.3
v -1 4 0.3
v -1.1 4 -0.5
v -1 4 -0.5
v -1 4.3 -0.4
v 1 4.3 -0.4
v -1 4.3 -0.9
v -0.9 4.3 -0.9
v -0.2 4.3 -0.9
v 1 4.3 -0.9
v -0.9 4.3 -1
v -0.2 4.3 -1
v 1 4.4 1.1
v 1.1 4.4 1.1
v 1 4.4 -0.1
v 1.1 4.4 -0.1
v -1 4.6 1.2
v -0.6 4.6 1.2
v 0.3 4.6 1.2
v 1 4.6 1.2
v -0.8 4.6 1.1
v -0.6 4.6 1.1
v 0.3 4.6 1.1
v 0.4 4.6 1.1
v -0.8 4.6 0.1
v 0.4 4.6 0.1
v -1 4.6 -0.4
v 1 4.6 -0.4
v -0.6 4.7 1.4
v 0.3 4.7 1.4
v -0.8 4.7 1.1
v -0.6 4.7 1.1
v 0.3 4.7 1.1
v 0.4 4.7 1.1
v -0.8 4.7 0.1
v 0.4 4.7 0.1

# faces
f 5/1/1 2/1/1 1/1/1
f 6/1/1 2/1/1 5/1/1
f 7/1/1 4/1/1 3/1/1
f 8/1/1 4/1/1 7/1/1
f 12/2/1 10/2/1 9/2/1
f 13/2/1 12/2/1 11/2/1
f 14/2/1 10/2/1 12/2/1
f 14/2/1 12/2/1 13/2/1
f 15/2/1 10/2/1 14/2/1
f 16/2/1 10/2/1 15/2/1
f 17/2/1 13/2/1 11/2/1
f 18/2/1 15/2/1 14/2/1
f 19/2/1 15/2/1 18/2/1
f 19/2/1 18/2/1 17/2/1
f 20/2/1 10/2/1 16/2/1
f 21/2/1 20/2/1 19/2/1
f 22/2/1 10/2/1 20/2/1
f 22/2/1 20/2/1 21/2/1
f 23/2/1 19/2/1 17/2/1
f 23/2/1 17/2/1 11/2/1
f 23/2/1 21/2/1 19/2/1
f 24/2/1 21/2/1 23/2/1
f 27/2/1 26/2/1 25/2/1
f 28/2/1 26/2/1 27/2/1
f 31/3/1 30/3/1 29/3/1
f 32/3/1 30/3/1 31/3/1
f 35/1/1 34/1/1 33/1/1
f 36/1/1 34/1/1 35/1/1
f 39/1/1 38/1/1 37/1/1
f 41/1/1 39/1/1 37/1/1
f 41/1/1 40/1/1 39/1/1
f 42/1/1 40/1/1 41/1/1
f 45/3/1 44/3/1 43/3/1
f 46/3/1 44/3/1 45/3/1
f 47/3/1 45/3/1 43/3/1
f 48/3/1 44/3/1 46/3/1
f 49/3/1 47/3/1 43/3/1
f 49/3/1 48/3/1 47/3/1
f 50/3/1 44/3/1 48/3/1
f 50/3/1 48/3/1 49/3/1
f 53/1/1 52/1/1 51/1/1
f 54/1/1 52/1/1 53/1/1
f 57/1/1 56/1/1 55/1/1
f 58/1/1 56/1/1 57/1/1
f 59/3/2 60/3/2 61/3/2
f 61/3/2 60/3/2 62/3/2
f 63/2/2 64/2/2 65/2/2
f 65/2/2 64/2/2 66/2/2
f 67/1/2 68/1/2 69/1/2
f 67/1/2 69/1/2 71/1/2
f 69/1/2 70/1/2 71/1/2
f 71/1/2 70/1/2 72/1/2
f 73/3/2 74/3/2 75/3/2
f 75/3/2 74/3/2 76/3/2
f 77/1/2 78/1/2 79/1/2
f 79/1/2 78/1/2 80/1/2
f 81/1/2 82/1/2 83/1/2
f 83/1/2 82/1/2 84/1/2
f 85/2/2 86/2/2 88/2/2
f 88/2/2 86/2/2 89/2/2
f 87/2/2 88/2/2 89/2/2
f 89/2/2 86/2/2 90/2/2
f 87/2/2 89/2/2 91/2/2
f 91/2/2 89/2/2 92/2/2
f 92/2/2 89/2/2 93/2/2
f 93/2/2 94/2/2 95/2/2
f 95/2/2 94/2/2 96/2/2
f 87/2/2 91/2/2 97/2/2
f 92/2/2 93/2/2 98/2/2
f 93/2/2 95/2/2 98/2/2
f 87/2/2 97/2/2 99/2/2
f 97/2/2 98/2/2 99/2/2
f 98/2/2 95/2/2 100/2/2
f 99/2/2 98/2/2 100/2/2
f 101/2/2 102/2/2 103/2/2
f 103/2/2 102/2/2 104/2/2
f 105/1/2 106/1/2 107/1/2
f 107/1/2 106/1/2 108/1/2
f 111/1/3 110/1/3 109/1/3
f 112/1/3 110/1/3 111/1/3
f 115/1/3 114/1/3 113/1/3
f 116/1/3 114/1/3 115/1/3
f 119/2/3 118/2/3 117/2/3
f 120/2/3 118/2/3 119/2/3
f 121/2/3 119/2/3 117/2/3
f 122/2/3 119/2/3 121/2/3
f 123/2/3 119/2/3 122/2/3
f 125/2/3 121/2/3 117/2/3
f 126/2/3 124/2/3 123/2/3
f 126/2/3 123/2/3 122/2/3
f 127/2/3 125/2/3 117/2/3
f 127/2/3 126/2/3 125/2/3
f 128/2/3 124/2/3 126/2/3
f 128/2/3 126/2/3 127/2/3
f 131/1/3 130/1/3 129/1/3
f 132/1/3 130/1/3 131/1/3
f 135/1/3 134/1/3 133/1/3
f 136/1/3 134/1/3 135/1/3
f 139/2/3 138/2/3 137/2/3
f 140/2/3 138/2/3 139/2/3
f 143/1/3 142/1/3 141/1/3
f 144/1/3 142/1/3 143/1/3
f 147/2/3 146/2/3 145/2/3
f 148/2/3 146/2/3 147/2/3
f 151/3/3 150/3/3 149/3/3
f 152/3/3 150/3/3 151/3/3
f 155/1/3 154/1/3 153/1/3
f 156/1/3 154/1/3 155/1/3
f 159/3/3 158/3/3 157/3/3
f 160/3/3 158/3/3 159/3/3
f 161/3/3 159/3/3 157/3/3
f 162/3/3 159/3/3 161/3/3
f 165/1/3 164/1/3 163/1/3
f 166/1/3 164/1/3 165/1/3
f 167/1/4 168/1/4 169/1/4
f 169/1/4 168/1/4 170/1/4
f 171/1/4 172/1/4 173/1/4
f 173/1/4 172/1/4 174/1/4
f 175/3/4 176/3/4 177/3/4
f 177/3/4 176/3/4 178/3/4
f 175/3/4 177/3/4 179/3/4
f 179/3/4 177/3/4 180/3/4
f 181/2/4 182/2/4 183/2/4
f 183/2/4 182/2/4 184/2/4
f 187/3/4 188/3/4 189/3/4
f 189/3/4 188/3/4 190/3/4
f 185/2/4 186/2/4 191/2/4
f 191/2/4 186/2/4 192/2/4
f 193/1/4 194/1/4 195/1/4
f 195/1/4 194/1/4 196/1/4
f 197/2/4 198/2/4 199/2/4
f 199/2/4 198/2/4 200/2/4
f 197/2/4 199/2/4 201/2/4
f 197/2/4 201/2/4 203/2/4
f 201/2/4 202/2/4 203/2/4
f 203/2/4 202/2/4 204/2/4
f 197/2/4 203/2/4 205/2/4
f 205/2/4 203/2/4 206/2/4
f 204/2/4 202/2/4 207/2/4
f 207/2/4 202/2/4 208/2/4
f 209/2/4 210/2/4 211/2/4
f 211/2/4 210/2/4 212/2/4
f 213/1/4 214/1/4 215/1/4
f 215/1/4 214/1/4 216/1/4
f 219/3/5 218/3/5 217/3/5
f 220/3/5 218/3/5 219/3/5
f 223/3/5 222/3/5 221/3/5
f 224/3/5 222/3/5 223/3/5
f 227/2/5 226/2/5 225/2/5
f 228/2/5 226/2/5 227/2/5
f 229/2/5 227/2/5 225/2/5
f 230/2/5 226/2/5 228/2/5
f 231/2/5 229/2/5 225/2/5
f 231/2/5 230/2/5 229/2/5
f 232/2/5 226/2/5 230/2/5
f 232/2/5 230/2/5 231/2/5
f 235/2/5 234/2/5 233/2/5
f 236/2/5 234/2/5 235/2/5
f 239/1/5 238/1/5 237/1/5
f 240/1/5 238/1/5 239/1/5
f 243/1/5 242/1/5 241/1/5
f 244/1/5 242/1/5 243/1/5
f 247/1/5 246/1/5 245/1/5
f 248/1/5 246/1/5 247/1/5
f 252/1/5 250/1/5 249/1/5
f 253/1/5 252/1/5 251/1/5
f 254/1/5 250/1/5 252/1/5
f 254/1/5 252/1/5 253/1/5
f 257/2/5 256/2/5 255/2/5
f 258/2/5 256/2/5 257/2/5
f 261/2/5 260/2/5 259/2/5
f 262/2/5 260/2/5 261/2/5
f 265/1/5 264/1/5 263/1/5
f 266/1/5 264/1/5 265/1/5
f 267/3/6 268/3/6 269/3/6
f 269/3/6 268/3/6 270/3/6
f 271/3/6 272/3/6 273/3/6
f 273/3/6 272/3/6 274/3/6
f 275/1/6 276/1/6 277/1/6
f 277/1/6 276/1/6 278/1/6
f 279/1/6 280/1/6 281/1/6
f 281/1/6 280/1/6 282/1/6
f 283/1/6 284/1/6 286/1/6
f 285/1/6 286/1/6 287/1/6
f 286/1/6 284/1/6 288/1/6
f 287/1/6 286/1/6 288/1/6
f 289/1/6 290/1/6 291/1/6
f 291/1/6 290/1/6 292/1/6
f 293/2/6 294/2/6 295/2/6
f 295/2/6 294/2/6 296/2/6
f 296/2/6 294/2/6 297/2/6
f 297/2/6 294/2/6 298/2/6
f 296/2/6 297/2/6 299/2/6
f 299/2/6 297/2/6 300/2/6
f 301/2/6 302/2/6 303/2/6
f 303/2/6 302/2/6 304/2/6
f 305/2/6 306/2/6 309/2/6
f 309/2/6 306/2/6 310/2/6
f 307/2/6 308/2/6 311/2/6
f 311/2/6 308/2/6 312/2/6
f 305/2/6 309/2/6 313/2/6
f 312/2/6 308/2/6 314/2/6
f 305/2/6 313/2/6 315/2/6
f 313/2/6 314/2/6 315/2/6
f 314/2/6 308/2/6 316/2/6
f 315/2/6 314/2/6 316/2/6
f 317/1/6 318/1/6 320/1/6
f 320/1/6 318/1/6 321/1/6
f 319/1/6 320/1/6 323/1/6
f 321/1/6 322/1/6 323/1/6
f 320/1/6 321/1/6 323/1/6
f 323/1/6 322/1/6 324/1/6
