# MagicaVoxel @ Ephtracy

# group
o 

# material
mtllib Character_01_OMGDC_body.mtl
usemtl palette

# normals
vn -1 0 0
vn 1 0 0
vn 0 0 1
vn 0 0 -1
vn 0 -1 0
vn 0 1 0

# texcoords
vt 0.978516 0.5
vt 0.986328 0.5

# verts
v -0.3 0.3 0.1
v -0.3 0.3 0
v -0.3 0.3 -0.2
v -0.3 0.3 -0.3
v -0.3 0.4 0
v -0.3 0.4 -0.2
v -0.3 0.5 0
v -0.3 0.5 -0.2
v -0.3 0.6 0
v -0.3 0.6 -0.2
v -0.3 0.7 0
v -0.3 0.7 -0.2
v -0.3 0.9 0.1
v -0.3 0.9 0
v -0.3 0.9 -0.2
v -0.3 0.9 -0.3
v 0.3 0.3 0.1
v 0.3 0.3 0
v 0.3 0.3 -0.2
v 0.3 0.3 -0.3
v 0.3 0.4 0
v 0.3 0.4 -0.2
v 0.3 0.5 0
v 0.3 0.5 -0.2
v 0.3 0.6 0
v 0.3 0.6 -0.2
v 0.3 0.7 0
v 0.3 0.7 -0.2
v 0.3 0.9 0.1
v 0.3 0.9 0
v 0.3 0.9 -0.2
v 0.3 0.9 -0.3
v -0.3 0.3 0.1
v -0.3 0.9 0.1
v 0.3 0.3 0.1
v 0.3 0.9 0.1
v -0.3 0.3 -0.3
v -0.3 0.9 -0.3
v 0.3 0.3 -0.3
v 0.3 0.9 -0.3
v -0.3 0.3 0.1
v 0.3 0.3 0.1
v -0.3 0.3 0
v -0.1 0.3 0
v 0.1 0.3 0
v 0.3 0.3 0
v -0.3 0.3 -0.2
v -0.1 0.3 -0.2
v 0.1 0.3 -0.2
v 0.3 0.3 -0.2
v -0.3 0.3 -0.3
v 0.3 0.3 -0.3
v -0.3 0.9 0.1
v 0.3 0.9 0.1
v -0.3 0.9 0
v 0.3 0.9 0
v -0.3 0.9 -0.2
v 0.3 0.9 -0.2
v -0.3 0.9 -0.3
v 0.3 0.9 -0.3

# faces
f 5/2/1 2/2/1 1/2/1
f 5/1/1 3/1/1 2/1/1
f 6/2/1 4/2/1 3/2/1
f 6/1/1 3/1/1 5/1/1
f 7/2/1 5/2/1 1/2/1
f 7/2/1 6/2/1 5/2/1
f 8/2/1 4/2/1 6/2/1
f 8/2/1 6/2/1 7/2/1
f 9/2/1 7/2/1 1/2/1
f 9/1/1 8/1/1 7/1/1
f 10/2/1 4/2/1 8/2/1
f 10/1/1 8/1/1 9/1/1
f 11/2/1 9/2/1 1/2/1
f 11/2/1 10/2/1 9/2/1
f 12/2/1 4/2/1 10/2/1
f 12/2/1 10/2/1 11/2/1
f 13/2/1 11/2/1 1/2/1
f 14/1/1 12/1/1 11/1/1
f 14/2/1 11/2/1 13/2/1
f 15/2/1 4/2/1 12/2/1
f 15/1/1 12/1/1 14/1/1
f 16/2/1 4/2/1 15/2/1
f 17/2/2 18/2/2 21/2/2
f 18/1/2 19/1/2 21/1/2
f 19/2/2 20/2/2 22/2/2
f 21/1/2 19/1/2 22/1/2
f 17/2/2 21/2/2 23/2/2
f 21/2/2 22/2/2 23/2/2
f 22/2/2 20/2/2 24/2/2
f 23/2/2 22/2/2 24/2/2
f 17/2/2 23/2/2 25/2/2
f 23/1/2 24/1/2 25/1/2
f 24/2/2 20/2/2 26/2/2
f 25/1/2 24/1/2 26/1/2
f 17/2/2 25/2/2 27/2/2
f 25/2/2 26/2/2 27/2/2
f 26/2/2 20/2/2 28/2/2
f 27/2/2 26/2/2 28/2/2
f 17/2/2 27/2/2 29/2/2
f 27/1/2 28/1/2 30/1/2
f 29/2/2 27/2/2 30/2/2
f 28/2/2 20/2/2 31/2/2
f 30/1/2 28/1/2 31/1/2
f 31/2/2 20/2/2 32/2/2
f 35/2/3 34/2/3 33/2/3
f 36/2/3 34/2/3 35/2/3
f 37/2/4 38/2/4 39/2/4
f 39/2/4 38/2/4 40/2/4
f 43/2/5 42/2/5 41/2/5
f 44/2/5 42/2/5 43/2/5
f 45/2/5 42/2/5 44/2/5
f 46/2/5 42/2/5 45/2/5
f 47/1/5 44/1/5 43/1/5
f 48/2/5 45/2/5 44/2/5
f 48/1/5 44/1/5 47/1/5
f 49/1/5 46/1/5 45/1/5
f 49/2/5 45/2/5 48/2/5
f 50/1/5 46/1/5 49/1/5
f 51/2/5 48/2/5 47/2/5
f 51/2/5 49/2/5 48/2/5
f 51/2/5 50/2/5 49/2/5
f 52/2/5 50/2/5 51/2/5
f 53/2/6 54/2/6 55/2/6
f 55/2/6 54/2/6 56/2/6
f 55/1/6 56/1/6 57/1/6
f 57/1/6 56/1/6 58/1/6
f 57/2/6 58/2/6 59/2/6
f 59/2/6 58/2/6 60/2/6
