# MagicaVoxel @ Ephtracy

# group
o 

# material
mtllib treasure_top.mtl
usemtl palette

# normals
vn -1 0 0
vn 1 0 0
vn 0 0 1
vn 0 0 -1
vn 0 -1 0
vn 0 1 0

# texcoords
vt 0.373047 0.5
vt 0.537109 0.5
vt 0.978516 0.5
vt 0.990234 0.5

# verts
v -0.6 0 0.8
v -0.6 0 -0.8
v -0.6 0.1 0.7
v -0.6 0.1 -0.7
v -0.6 0.6 0.7
v -0.6 0.6 -0.7
v -0.6 0.7 0.8
v -0.6 0.7 -0.8
v -0.5 0.1 0.7
v -0.5 0.1 -0.7
v -0.5 0.6 0.7
v -0.5 0.6 -0.7
v 0.4 0.1 0.6
v 0.4 0.1 -0.6
v 0.4 0.6 0.6
v 0.4 0.6 -0.6
v 0.4 0.7 0.6
v 0.4 0.7 -0.6
v 0.5 0.1 0.8
v 0.5 0.1 0.7
v 0.5 0.1 -0.7
v 0.5 0.1 -0.8
v 0.5 0.6 0.8
v 0.5 0.6 0.7
v 0.5 0.6 -0.7
v 0.5 0.6 -0.8
v -0.5 0.1 0.8
v -0.5 0.1 0.7
v -0.5 0.1 -0.7
v -0.5 0.1 -0.8
v -0.5 0.6 0.8
v -0.5 0.6 0.7
v -0.5 0.6 -0.7
v -0.5 0.6 -0.8
v -0.4 0.1 0.6
v -0.4 0.1 -0.6
v -0.4 0.6 0.6
v -0.4 0.6 -0.6
v -0.4 0.7 0.6
v -0.4 0.7 -0.6
v 0.5 0.1 0.7
v 0.5 0.1 -0.7
v 0.5 0.4 0.2
v 0.5 0.4 -0.2
v 0.5 0.6 0.7
v 0.5 0.6 0.2
v 0.5 0.6 -0.2
v 0.5 0.6 -0.7
v 0.6 0 0.8
v 0.6 0 -0.8
v 0.6 0.1 0.7
v 0.6 0.1 -0.7
v 0.6 0.4 0.2
v 0.6 0.4 -0.2
v 0.6 0.5 0.1
v 0.6 0.5 -0.1
v 0.6 0.6 0.7
v 0.6 0.6 0.2
v 0.6 0.6 -0.2
v 0.6 0.6 -0.7
v 0.6 0.7 0.8
v 0.6 0.7 0.2
v 0.6 0.7 0.1
v 0.6 0.7 -0.1
v 0.6 0.7 -0.2
v 0.6 0.7 -0.8
v -0.6 0 0.8
v -0.6 0.7 0.8
v -0.5 0.1 0.8
v -0.5 0.6 0.8
v 0.5 0.1 0.8
v 0.5 0.6 0.8
v 0.6 0 0.8
v 0.6 0.7 0.8
v -0.5 0.1 0.7
v -0.5 0.6 0.7
v 0.5 0.1 0.7
v 0.5 0.6 0.7
v 0.5 0.4 0.2
v 0.5 0.6 0.2
v 0.6 0.4 0.2
v 0.6 0.6 0.2
v -0.4 0.1 -0.6
v -0.4 0.6 -0.6
v -0.4 0.7 -0.6
v 0.4 0.1 -0.6
v 0.4 0.6 -0.6
v 0.4 0.7 -0.6
v -0.6 0.1 -0.7
v -0.6 0.6 -0.7
v -0.5 0.1 -0.7
v -0.5 0.6 -0.7
v 0.5 0.1 -0.7
v 0.5 0.6 -0.7
v 0.6 0.1 -0.7
v 0.6 0.6 -0.7
v -0.6 0.1 0.7
v -0.6 0.6 0.7
v -0.5 0.1 0.7
v -0.5 0.6 0.7
v 0.5 0.1 0.7
v 0.5 0.6 0.7
v 0.6 0.1 0.7
v 0.6 0.6 0.7
v -0.4 0.1 0.6
v -0.4 0.6 0.6
v -0.4 0.7 0.6
v 0.4 0.1 0.6
v 0.4 0.6 0.6
v 0.4 0.7 0.6
v 0.5 0.4 -0.2
v 0.5 0.6 -0.2
v 0.6 0.4 -0.2
v 0.6 0.6 -0.2
v -0.5 0.1 -0.7
v -0.5 0.6 -0.7
v 0.5 0.1 -0.7
v 0.5 0.6 -0.7
v -0.6 0 -0.8
v -0.6 0.7 -0.8
v -0.5 0.1 -0.8
v -0.5 0.6 -0.8
v 0.5 0.1 -0.8
v 0.5 0.6 -0.8
v 0.6 0 -0.8
v 0.6 0.7 -0.8
v -0.6 0 0.8
v 0.6 0 0.8
v -0.6 0 -0.8
v 0.6 0 -0.8
v 0.5 0.4 0.2
v 0.6 0.4 0.2
v 0.5 0.4 -0.2
v 0.6 0.4 -0.2
v -0.5 0.6 0.8
v 0.5 0.6 0.8
v -0.6 0.6 0.7
v -0.5 0.6 0.7
v 0.5 0.6 0.7
v 0.6 0.6 0.7
v 0.5 0.6 0.2
v 0.6 0.6 0.2
v 0.5 0.6 -0.2
v 0.6 0.6 -0.2
v -0.6 0.6 -0.7
v -0.5 0.6 -0.7
v 0.5 0.6 -0.7
v 0.6 0.6 -0.7
v -0.5 0.6 -0.8
v 0.5 0.6 -0.8
v -0.5 0.1 0.8
v 0.5 0.1 0.8
v -0.6 0.1 0.7
v -0.5 0.1 0.7
v 0.5 0.1 0.7
v 0.6 0.1 0.7
v -0.4 0.1 0.6
v 0.4 0.1 0.6
v -0.4 0.1 -0.6
v 0.4 0.1 -0.6
v -0.6 0.1 -0.7
v -0.5 0.1 -0.7
v 0.5 0.1 -0.7
v 0.6 0.1 -0.7
v -0.5 0.1 -0.8
v 0.5 0.1 -0.8
v -0.6 0.7 0.8
v 0.6 0.7 0.8
v -0.4 0.7 0.6
v 0.4 0.7 0.6
v 0.5 0.7 0.2
v 0.6 0.7 0.2
v 0.5 0.7 0.1
v 0.6 0.7 0.1
v 0.5 0.7 -0.1
v 0.6 0.7 -0.1
v 0.5 0.7 -0.2
v 0.6 0.7 -0.2
v -0.4 0.7 -0.6
v 0.4 0.7 -0.6
v -0.6 0.7 -0.8
v 0.6 0.7 -0.8

# faces
f 3/1/1 2/1/1 1/1/1
f 4/1/1 2/1/1 3/1/1
f 5/1/1 3/1/1 1/1/1
f 6/1/1 2/1/1 4/1/1
f 7/1/1 5/1/1 1/1/1
f 7/1/1 6/1/1 5/1/1
f 8/1/1 2/1/1 6/1/1
f 8/1/1 6/1/1 7/1/1
f 11/2/1 10/2/1 9/2/1
f 12/2/1 10/2/1 11/2/1
f 15/2/1 14/2/1 13/2/1
f 16/2/1 14/2/1 15/2/1
f 17/1/1 16/1/1 15/1/1
f 18/1/1 16/1/1 17/1/1
f 23/1/1 20/1/1 19/1/1
f 24/1/1 20/1/1 23/1/1
f 25/1/1 22/1/1 21/1/1
f 26/1/1 22/1/1 25/1/1
f 27/1/2 28/1/2 31/1/2
f 31/1/2 28/1/2 32/1/2
f 29/1/2 30/1/2 33/1/2
f 33/1/2 30/1/2 34/1/2
f 35/2/2 36/2/2 37/2/2
f 37/2/2 36/2/2 38/2/2
f 37/1/2 38/1/2 39/1/2
f 39/1/2 38/1/2 40/1/2
f 41/2/2 42/2/2 43/2/2
f 43/2/2 42/2/2 44/2/2
f 41/2/2 43/2/2 45/2/2
f 45/2/2 43/2/2 46/2/2
f 44/2/2 42/2/2 47/2/2
f 47/2/2 42/2/2 48/2/2
f 49/1/2 50/1/2 51/1/2
f 51/1/2 50/1/2 52/1/2
f 53/3/2 54/3/2 55/3/2
f 55/3/2 54/3/2 56/3/2
f 49/1/2 51/1/2 57/1/2
f 53/3/2 55/3/2 58/3/2
f 56/3/2 54/3/2 59/3/2
f 52/1/2 50/1/2 60/1/2
f 57/1/2 58/1/2 61/1/2
f 49/1/2 57/1/2 61/1/2
f 58/3/2 55/3/2 62/3/2
f 61/1/2 58/1/2 62/1/2
f 55/4/2 56/4/2 63/4/2
f 62/3/2 55/3/2 63/3/2
f 56/3/2 59/3/2 64/3/2
f 63/4/2 56/4/2 64/4/2
f 59/1/2 60/1/2 65/1/2
f 64/3/2 59/3/2 65/3/2
f 60/1/2 50/1/2 66/1/2
f 65/1/2 60/1/2 66/1/2
f 69/1/3 68/1/3 67/1/3
f 70/1/3 68/1/3 69/1/3
f 71/1/3 69/1/3 67/1/3
f 72/1/3 68/1/3 70/1/3
f 73/1/3 71/1/3 67/1/3
f 73/1/3 72/1/3 71/1/3
f 74/1/3 68/1/3 72/1/3
f 74/1/3 72/1/3 73/1/3
f 77/2/3 76/2/3 75/2/3
f 78/2/3 76/2/3 77/2/3
f 81/3/3 80/3/3 79/3/3
f 82/3/3 80/3/3 81/3/3
f 86/2/3 84/2/3 83/2/3
f 87/1/3 85/1/3 84/1/3
f 87/2/3 84/2/3 86/2/3
f 88/1/3 85/1/3 87/1/3
f 91/1/3 90/1/3 89/1/3
f 92/1/3 90/1/3 91/1/3
f 95/1/3 94/1/3 93/1/3
f 96/1/3 94/1/3 95/1/3
f 97/1/4 98/1/4 99/1/4
f 99/1/4 98/1/4 100/1/4
f 101/1/4 102/1/4 103/1/4
f 103/1/4 102/1/4 104/1/4
f 105/2/4 106/2/4 108/2/4
f 106/1/4 107/1/4 109/1/4
f 108/2/4 106/2/4 109/2/4
f 109/1/4 107/1/4 110/1/4
f 111/3/4 112/3/4 113/3/4
f 113/3/4 112/3/4 114/3/4
f 115/2/4 116/2/4 117/2/4
f 117/2/4 116/2/4 118/2/4
f 119/1/4 120/1/4 121/1/4
f 121/1/4 120/1/4 122/1/4
f 119/1/4 121/1/4 123/1/4
f 122/1/4 120/1/4 124/1/4
f 119/1/4 123/1/4 125/1/4
f 123/1/4 124/1/4 125/1/4
f 124/1/4 120/1/4 126/1/4
f 125/1/4 124/1/4 126/1/4
f 129/1/5 128/1/5 127/1/5
f 130/1/5 128/1/5 129/1/5
f 133/3/5 132/3/5 131/3/5
f 134/3/5 132/3/5 133/3/5
f 138/1/5 136/1/5 135/1/5
f 139/1/5 136/1/5 138/1/5
f 141/1/5 140/1/5 139/1/5
f 142/1/5 140/1/5 141/1/5
f 145/1/5 138/1/5 137/1/5
f 146/1/5 138/1/5 145/1/5
f 147/1/5 144/1/5 143/1/5
f 148/1/5 144/1/5 147/1/5
f 149/1/5 147/1/5 146/1/5
f 150/1/5 147/1/5 149/1/5
f 151/1/6 152/1/6 154/1/6
f 154/1/6 152/1/6 155/1/6
f 157/1/6 158/1/6 159/1/6
f 159/1/6 158/1/6 160/1/6
f 153/1/6 154/1/6 161/1/6
f 161/1/6 154/1/6 162/1/6
f 155/1/6 156/1/6 163/1/6
f 163/1/6 156/1/6 164/1/6
f 162/1/6 163/1/6 165/1/6
f 165/1/6 163/1/6 166/1/6
f 167/1/6 168/1/6 169/1/6
f 169/1/6 168/1/6 170/1/6
f 170/1/6 168/1/6 171/1/6
f 171/1/6 168/1/6 172/1/6
f 170/1/6 171/1/6 173/1/6
f 171/3/6 172/3/6 173/3/6
f 173/3/6 172/3/6 174/3/6
f 170/1/6 173/1/6 175/1/6
f 173/4/6 174/4/6 175/4/6
f 175/4/6 174/4/6 176/4/6
f 170/1/6 175/1/6 177/1/6
f 175/3/6 176/3/6 177/3/6
f 177/3/6 176/3/6 178/3/6
f 167/1/6 169/1/6 179/1/6
f 170/1/6 177/1/6 180/1/6
f 177/1/6 178/1/6 180/1/6
f 167/1/6 179/1/6 181/1/6
f 179/1/6 180/1/6 181/1/6
f 180/1/6 178/1/6 182/1/6
f 181/1/6 180/1/6 182/1/6
